<svg width="38" height="38" viewBox="0 0 38 38" fill="none" xmlns="http://www.w3.org/2000/svg">
<path d="M37.9995 19.4387C37.9995 18.1472 37.8927 16.8487 37.6648 15.5781H19.3828V22.8943H29.852C29.4176 25.2539 28.0217 27.3412 25.9777 28.6676V33.4147H32.2236C35.8914 30.1057 37.9995 25.219 37.9995 19.4387Z" fill="#4285F4"/>
<path d="M19.383 37.999C24.6104 37.999 29.0189 36.3165 32.2309 33.4124L25.985 28.6653C24.2472 29.8241 22.0038 30.4804 19.3901 30.4804C14.3335 30.4804 10.0462 27.1364 8.50782 22.6406H2.0625V27.5343C5.35282 33.9499 12.0545 37.999 19.383 37.999Z" fill="#34A853"/>
<path d="M8.49999 22.6367C7.68809 20.2771 7.68809 17.7221 8.49999 15.3625V10.4688H2.06179C-0.687263 15.8372 -0.687263 22.162 2.06179 27.5305L8.49999 22.6367Z" fill="#FBBC04"/>
<path d="M19.383 7.51988C22.1463 7.478 24.817 8.49723 26.8182 10.3682L32.3519 4.94387C28.848 1.71862 24.1974 -0.0545682 19.383 0.00128032C12.0545 0.00128032 5.35282 4.0503 2.0625 10.4729L8.5007 15.3666C10.0319 10.8638 14.3264 7.51988 19.383 7.51988Z" fill="#EA4335"/>
</svg>
