<svg width="38" height="38" viewBox="0 0 38 38" fill="none" xmlns="http://www.w3.org/2000/svg">
<g clip-path="url(#clip0_6102_13338)">
<path d="M19 38C29.4934 38 38 29.4934 38 19C38 8.50659 29.4934 0 19 0C8.50659 0 0 8.50659 0 19C0 29.4934 8.50659 38 19 38Z" fill="#FF4500"/>
<path d="M31.6639 18.9967C31.6639 17.4634 30.4194 16.2189 28.8861 16.2189C28.1306 16.2189 27.4639 16.5078 26.975 16.9967C25.0861 15.6411 22.4639 14.7523 19.575 14.6411L20.8417 8.70781L24.9528 9.57448C24.9972 10.6189 25.8639 11.4634 26.9306 11.4634C28.0194 11.4634 28.9083 10.5745 28.9083 9.48559C28.9083 8.3967 28.0194 7.50781 26.9306 7.50781C26.1528 7.50781 25.4861 7.95226 25.175 8.61892L20.575 7.64115C20.4417 7.61892 20.3083 7.64115 20.1972 7.70781C20.0861 7.77448 20.0194 7.88559 19.975 8.01892L18.575 14.6411C15.6194 14.73 12.975 15.5967 11.0639 16.9967C10.575 16.53 9.88611 16.2189 9.15278 16.2189C7.61944 16.2189 6.375 17.4634 6.375 18.9967C6.375 20.13 7.04167 21.0856 8.01944 21.53C7.975 21.7967 7.95278 22.0856 7.95278 22.3745C7.95278 26.6411 12.9083 30.0856 19.0417 30.0856C25.175 30.0856 30.1306 26.6411 30.1306 22.3745C30.1306 22.0856 30.1083 21.8189 30.0639 21.5523C30.975 21.1078 31.6639 20.13 31.6639 18.9967ZM12.6639 20.9745C12.6639 19.8856 13.5528 18.9967 14.6417 18.9967C15.7306 18.9967 16.6194 19.8856 16.6194 20.9745C16.6194 22.0634 15.7306 22.9523 14.6417 22.9523C13.5528 22.9523 12.6639 22.0634 12.6639 20.9745ZM23.7083 26.1967C22.3528 27.5523 19.775 27.6411 19.0194 27.6411C18.2639 27.6411 15.6639 27.53 14.3306 26.1967C14.1306 25.9967 14.1306 25.6634 14.3306 25.4634C14.5306 25.2634 14.8639 25.2634 15.0639 25.4634C15.9083 26.3078 17.7306 26.6189 19.0417 26.6189C20.3528 26.6189 22.1528 26.3078 23.0194 25.4634C23.2194 25.2634 23.5528 25.2634 23.7528 25.4634C23.9083 25.6856 23.9083 25.9967 23.7083 26.1967ZM23.3528 22.9523C22.2639 22.9523 21.375 22.0634 21.375 20.9745C21.375 19.8856 22.2639 18.9967 23.3528 18.9967C24.4417 18.9967 25.3306 19.8856 25.3306 20.9745C25.3306 22.0634 24.4417 22.9523 23.3528 22.9523Z" fill="white"/>
</g>
<defs>
<clipPath id="clip0_6102_13338">
<rect width="38" height="38" fill="white"/>
</clipPath>
</defs>
</svg>
