<svg width="40" height="41" viewBox="0 0 40 41" fill="none" xmlns="http://www.w3.org/2000/svg">
<path d="M21.5 2.88281C22.4174 2.88281 23.2596 2.88388 24.0361 2.88867C24.3693 2.89073 24.6903 2.89327 25 2.89746C25.3931 2.90279 25.7679 2.90976 26.126 2.91992C26.2811 2.92432 26.4331 2.92905 26.582 2.93457C26.6563 2.93732 26.7299 2.9403 26.8027 2.94336C26.9263 2.94854 27.0476 2.95483 27.167 2.96094C27.268 2.96611 27.3677 2.97068 27.4658 2.97656C27.4772 2.97725 27.4886 2.97782 27.5 2.97852C27.568 2.98267 27.6355 2.98865 27.7021 2.99316C27.8462 3.00293 27.9871 3.01282 28.125 3.02441C28.2246 3.03278 28.3224 3.04334 28.4189 3.05273C28.538 3.06432 28.6549 3.07562 28.7695 3.08887C28.8511 3.09829 28.9314 3.10883 29.0107 3.11914C29.1377 3.13563 29.262 3.15298 29.3838 3.17188C29.46 3.1837 29.5351 3.19617 29.6094 3.20898C29.7158 3.22736 29.8202 3.24706 29.9229 3.26758C30.0396 3.29092 30.1544 3.31357 30.2666 3.33984C30.2718 3.34107 30.277 3.34252 30.2822 3.34375C30.4367 3.38019 30.5869 3.41949 30.7334 3.46191C30.7442 3.46504 30.7549 3.46852 30.7656 3.47168C30.9077 3.51345 31.0462 3.55854 31.1816 3.60645C31.1967 3.61178 31.2116 3.61764 31.2266 3.62305C31.5099 3.72525 31.7801 3.84022 32.04 3.97266C32.1044 4.00545 32.1689 4.03912 32.2324 4.07324H32.2295L32.2314 4.07422H32.2354C32.2722 4.09404 32.3082 4.11548 32.3447 4.13574C32.3751 4.15255 32.4054 4.16941 32.4355 4.18652C32.5155 4.23188 32.5944 4.27872 32.6729 4.32617C32.712 4.34984 32.7513 4.37328 32.79 4.39746C32.8679 4.44599 32.9451 4.49532 33.0215 4.5459C33.0418 4.55936 33.0618 4.57331 33.082 4.58691C33.1719 4.64742 33.2609 4.70916 33.3486 4.77246C33.3702 4.788 33.3917 4.80363 33.4131 4.81934C33.4892 4.87516 33.5642 4.93233 33.6387 4.99023C33.6683 5.01331 33.6981 5.03617 33.7275 5.05957C33.7947 5.11305 33.861 5.1675 33.9268 5.22266C33.9646 5.25444 34.0026 5.28603 34.04 5.31836C34.1065 5.37583 34.1714 5.43496 34.2363 5.49414C34.261 5.51666 34.2861 5.53876 34.3105 5.56152C34.3724 5.61909 34.4328 5.6782 34.4932 5.7373C34.531 5.77434 34.5692 5.811 34.6064 5.84863C34.6662 5.90902 34.725 5.97033 34.7832 6.03223C34.8083 6.0589 34.8336 6.08536 34.8584 6.1123C34.9196 6.17881 34.9797 6.24629 35.0391 6.31445C35.0657 6.34507 35.0928 6.37531 35.1191 6.40625C35.1843 6.4829 35.2477 6.56101 35.3105 6.63965C35.3265 6.65954 35.3426 6.6792 35.3584 6.69922C35.4223 6.78044 35.4845 6.86304 35.5459 6.94629C35.5621 6.96818 35.5787 6.98969 35.5947 7.01172C35.7308 7.19932 35.8593 7.39257 35.9824 7.58984C35.9984 7.61542 36.0155 7.64028 36.0312 7.66602C36.1656 7.88584 36.2925 8.11098 36.4102 8.3418V8.34277L36.6016 8.75195C37.4998 10.8427 37.5 13.632 37.5 18.8828V21.1904H37.502V22.1016C37.5019 22.5579 37.4989 22.9953 37.498 23.415C37.4977 23.6072 37.4968 23.7956 37.4961 23.9805C37.4895 25.6558 37.4644 27.0358 37.3799 28.207C37.373 28.3025 37.3671 28.3966 37.3594 28.4893C37.3071 29.1168 37.2384 29.6831 37.1396 30.2021H37.1357L37.0723 30.5117C37.0697 30.5235 37.0661 30.5351 37.0635 30.5469C37.0476 30.6181 37.0308 30.6883 37.0137 30.7578C36.988 30.8622 36.9611 30.9647 36.9326 31.0654C36.9166 31.122 36.8998 31.1779 36.8828 31.2334C36.8569 31.3183 36.8299 31.4019 36.8018 31.4844C36.7835 31.5379 36.7653 31.591 36.7461 31.6436C36.7088 31.7453 36.669 31.8449 36.6279 31.9434C36.6052 31.9979 36.5816 32.0518 36.5576 32.1055C36.5276 32.1726 36.4968 32.2389 36.4648 32.3047C36.4459 32.3437 36.4298 32.3842 36.4102 32.4229C35.657 33.901 34.55 35.16 33.1982 36.0977C33.1282 36.1463 33.0577 36.1943 32.9863 36.2412C32.6819 36.441 32.3668 36.6265 32.04 36.793C31.862 36.8837 31.6777 36.9628 31.4893 37.0391C31.3969 37.0765 31.3043 37.1153 31.209 37.1494C31.1705 37.1632 31.1308 37.1742 31.0918 37.1875C30.9861 37.2235 30.8792 37.2597 30.7695 37.292C30.7041 37.3113 30.6373 37.3277 30.5703 37.3457C30.4842 37.3689 30.3974 37.3928 30.3086 37.4141C30.2194 37.4354 30.1283 37.4532 30.0361 37.4727C29.9646 37.4877 29.8927 37.5046 29.8193 37.5186C29.7287 37.5358 29.6365 37.5508 29.543 37.5664C29.4613 37.5801 29.3789 37.5949 29.2949 37.6074C29.1951 37.6223 29.0935 37.6352 28.9902 37.6484C28.9051 37.6594 28.819 37.6707 28.7314 37.6807C28.6562 37.6892 28.58 37.6963 28.5029 37.7041C28.3738 37.7172 28.2421 37.731 28.1074 37.7422C28.0182 37.7496 27.9277 37.7551 27.8359 37.7617C27.7406 37.7686 27.644 37.7761 27.5459 37.7822C27.4094 37.7908 27.2701 37.7985 27.1279 37.8057C27.0265 37.8107 26.9237 37.8159 26.8193 37.8203C26.7239 37.8244 26.6273 37.8275 26.5293 37.8311C26.3828 37.8363 26.2335 37.8425 26.0811 37.8467C25.9897 37.8492 25.8973 37.8513 25.8037 37.8535C25.6659 37.8567 25.5256 37.8598 25.3828 37.8623C25.0702 37.8678 24.7456 37.8692 24.4082 37.8721C24.1637 37.8742 23.9125 37.8778 23.6543 37.8789C23.2642 37.8806 22.858 37.8815 22.4346 37.8818C22.2898 37.8819 22.143 37.8828 21.9941 37.8828H18.5C12.8995 37.8828 10.0991 37.8829 7.95996 36.793C6.07839 35.8342 4.54857 34.3044 3.58984 32.4229C2.49991 30.2837 2.5 27.4833 2.5 21.8828V18.8828C2.5 18.0807 2.5007 17.3361 2.50391 16.6426C2.50588 16.214 2.5085 15.805 2.51367 15.4141C2.51902 15.0103 2.52671 14.6257 2.53711 14.2588C2.54047 14.1401 2.54482 14.0233 2.54883 13.9082C2.55627 13.6945 2.56427 13.4869 2.57422 13.2852C2.57731 13.2224 2.58063 13.1603 2.58398 13.0986C2.59879 12.8268 2.61521 12.5657 2.63574 12.3145C2.66722 11.9291 2.70718 11.567 2.75488 11.2246C2.7611 11.18 2.76692 11.1357 2.77344 11.0918C2.79163 10.9692 2.81036 10.849 2.83105 10.7314L2.83301 10.7305C2.99444 9.81391 3.23318 9.04277 3.58984 8.34277C4.54857 6.46121 6.0784 4.93138 7.95996 3.97266C9.68302 3.09471 11.8352 2.92579 15.5342 2.89258V2.89062C15.6764 2.88935 15.8209 2.88957 15.9678 2.88867C16.7432 2.88391 17.5842 2.88281 18.5 2.88281H21.5Z" fill="#635BFF"/>
<path fill-rule="evenodd" clip-rule="evenodd" d="M18.6772 17.1057C18.6772 16.3023 19.334 15.9933 20.4219 15.9933C21.9818 15.9933 23.9522 16.4671 25.5121 17.3117V12.471C23.8085 11.7912 22.1255 11.5234 20.4219 11.5234C16.2553 11.5234 13.4844 13.7069 13.4844 17.3529C13.4844 23.0381 21.2839 22.1317 21.2839 24.583C21.2839 25.5305 20.4629 25.8395 19.3135 25.8395C17.6099 25.8395 15.4343 25.1391 13.7102 24.1916V29.0941C15.619 29.918 17.5484 30.2682 19.3135 30.2682C23.5828 30.2682 26.5178 28.1465 26.5178 24.4594C26.4973 18.321 18.6772 19.4127 18.6772 17.1057Z" fill="white"/>
</svg>
