<svg width="242" height="16" viewBox="0 0 242 16" fill="none" xmlns="http://www.w3.org/2000/svg">
<path d="M83 8C83 7.20152 83.0569 6.17833 82.8027 5.33105C82.6798 4.92139 82.4945 4.5973 82.2295 4.375C81.9713 4.15856 81.5912 4 81 4C80.4088 4.00001 80.0287 4.15853 79.7705 4.375C79.5054 4.59731 79.3202 4.92138 79.1973 5.33105C78.9431 6.17832 79 7.20154 79 8H83ZM84 8C84.5523 8 85 8.44772 85 9V13.5C85 14.0523 84.5523 14.5 84 14.5H78C77.4477 14.5 77 14.0523 77 13.5V9C77 8.44772 77.4477 8 78 8C78 7.29847 77.9319 6.07167 78.2402 5.04395C78.3986 4.51618 78.6665 3.99643 79.1279 3.60938C79.5963 3.21653 80.2163 3.00001 81 3C81.7837 3 82.4037 3.21652 82.8721 3.60938C83.3335 3.99643 83.6014 4.51616 83.7598 5.04395C84.0681 6.07167 84 7.29848 84 8Z" fill="white" fill-opacity="0.6"/>
<path d="M101.884 3.54545V13H100.776L95.6243 5.5767H95.532V13H94.3871V3.54545H95.495L100.665 10.9872H100.758V3.54545H101.884ZM107 13.1477C106.317 13.1477 105.728 12.9969 105.232 12.6953C104.74 12.3906 104.36 11.9659 104.092 11.4212C103.827 10.8733 103.695 10.2363 103.695 9.50994C103.695 8.78362 103.827 8.14347 104.092 7.58949C104.36 7.03243 104.732 6.59848 105.209 6.28764C105.689 5.97372 106.249 5.81676 106.89 5.81676C107.259 5.81676 107.624 5.87831 107.984 6.00142C108.344 6.12453 108.672 6.32457 108.967 6.60156C109.263 6.87547 109.498 7.23864 109.673 7.69105C109.849 8.14347 109.937 8.70052 109.937 9.36222V9.82386H104.471V8.8821H108.829C108.829 8.48201 108.749 8.125 108.589 7.81108C108.432 7.49716 108.207 7.24941 107.915 7.06783C107.625 6.88625 107.284 6.79545 106.89 6.79545C106.456 6.79545 106.08 6.90317 105.763 7.11861C105.449 7.33097 105.208 7.60795 105.038 7.94957C104.869 8.29119 104.785 8.65743 104.785 9.0483V9.67614C104.785 10.2116 104.877 10.6656 105.062 11.038C105.249 11.4073 105.509 11.6889 105.842 11.8828C106.174 12.0736 106.56 12.169 107 12.169C107.287 12.169 107.545 12.129 107.776 12.049C108.01 11.9659 108.211 11.8428 108.381 11.6797C108.55 11.5135 108.681 11.3073 108.773 11.0611L109.826 11.3565C109.715 11.7135 109.529 12.0275 109.267 12.2983C109.006 12.5661 108.682 12.7753 108.298 12.9261C107.913 13.0739 107.481 13.1477 107 13.1477ZM112.216 5.90909L113.915 8.80824L115.614 5.90909H116.869L114.58 9.45455L116.869 13H115.614L113.915 10.2486L112.216 13H110.96L113.213 9.45455L110.96 5.90909H112.216ZM123.447 7.49716L122.468 7.77415C122.406 7.61103 122.316 7.45253 122.196 7.29865C122.079 7.14169 121.919 7.01243 121.715 6.91087C121.512 6.8093 121.252 6.75852 120.935 6.75852C120.501 6.75852 120.14 6.85855 119.85 7.05859C119.564 7.25556 119.421 7.50639 119.421 7.81108C119.421 8.08191 119.52 8.29581 119.717 8.45277C119.914 8.60973 120.221 8.74053 120.64 8.84517L121.692 9.10369C122.326 9.25758 122.799 9.49302 123.11 9.81001C123.42 10.1239 123.576 10.5286 123.576 11.0241C123.576 11.4304 123.459 11.7936 123.225 12.1136C122.994 12.4337 122.671 12.6861 122.256 12.8707C121.84 13.0554 121.357 13.1477 120.806 13.1477C120.083 13.1477 119.484 12.9908 119.01 12.6768C118.536 12.3629 118.236 11.9044 118.11 11.3011L119.144 11.0426C119.243 11.4242 119.429 11.7105 119.703 11.9013C119.98 12.0921 120.341 12.1875 120.788 12.1875C121.295 12.1875 121.699 12.0798 121.997 11.8643C122.299 11.6458 122.449 11.3842 122.449 11.0795C122.449 10.8333 122.363 10.6271 122.191 10.4609C122.019 10.2917 121.754 10.1655 121.397 10.0824L120.215 9.8054C119.566 9.65152 119.089 9.413 118.784 9.08984C118.482 8.76361 118.332 8.35582 118.332 7.86648C118.332 7.46638 118.444 7.11245 118.669 6.80469C118.896 6.49692 119.206 6.25533 119.597 6.0799C119.99 5.90447 120.437 5.81676 120.935 5.81676C121.637 5.81676 122.188 5.97064 122.588 6.27841C122.991 6.58617 123.277 6.99242 123.447 7.49716ZM127.303 13.1662C126.853 13.1662 126.445 13.0816 126.079 12.9123C125.713 12.7399 125.422 12.4922 125.207 12.169C124.991 11.8428 124.884 11.4489 124.884 10.9872C124.884 10.581 124.964 10.2517 125.124 9.99929C125.284 9.74384 125.498 9.5438 125.765 9.39915C126.033 9.2545 126.328 9.14678 126.652 9.07599C126.978 9.00213 127.306 8.94366 127.635 8.90057C128.066 8.84517 128.415 8.80362 128.683 8.77592C128.954 8.74515 129.151 8.69437 129.274 8.62358C129.4 8.55279 129.463 8.42969 129.463 8.25426V8.21733C129.463 7.76184 129.338 7.40791 129.089 7.15554C128.843 6.90317 128.469 6.77699 127.967 6.77699C127.447 6.77699 127.039 6.89086 126.744 7.11861C126.449 7.34635 126.241 7.58949 126.121 7.84801L125.087 7.47869C125.271 7.04782 125.518 6.71236 125.825 6.4723C126.136 6.22917 126.475 6.0599 126.841 5.96449C127.21 5.866 127.573 5.81676 127.93 5.81676C128.158 5.81676 128.42 5.84446 128.715 5.89986C129.014 5.95218 129.301 6.06143 129.578 6.22763C129.859 6.39382 130.091 6.64465 130.276 6.98011C130.46 7.31558 130.553 7.76491 130.553 8.32812V13H129.463V12.0398H129.408C129.334 12.1937 129.211 12.3583 129.038 12.5337C128.866 12.7092 128.637 12.8584 128.35 12.9815C128.064 13.1046 127.715 13.1662 127.303 13.1662ZM127.469 12.1875C127.9 12.1875 128.263 12.1029 128.558 11.9336C128.857 11.7643 129.081 11.5458 129.232 11.2781C129.386 11.0103 129.463 10.7287 129.463 10.4332V9.43608C129.417 9.49148 129.315 9.54226 129.158 9.58842C129.004 9.63151 128.826 9.66998 128.623 9.70383C128.423 9.73461 128.227 9.76231 128.037 9.78693C127.849 9.80848 127.696 9.82694 127.58 9.84233C127.296 9.87926 127.032 9.93928 126.786 10.0224C126.542 10.1024 126.345 10.224 126.195 10.3871C126.047 10.5471 125.973 10.7656 125.973 11.0426C125.973 11.4212 126.113 11.7074 126.393 11.9013C126.676 12.0921 127.035 12.1875 127.469 12.1875ZM137.564 7.49716L136.585 7.77415C136.524 7.61103 136.433 7.45253 136.313 7.29865C136.196 7.14169 136.036 7.01243 135.833 6.91087C135.63 6.8093 135.369 6.75852 135.052 6.75852C134.619 6.75852 134.257 6.85855 133.968 7.05859C133.681 7.25556 133.538 7.50639 133.538 7.81108C133.538 8.08191 133.637 8.29581 133.834 8.45277C134.031 8.60973 134.338 8.74053 134.757 8.84517L135.81 9.10369C136.444 9.25758 136.916 9.49302 137.227 9.81001C137.538 10.1239 137.693 10.5286 137.693 11.0241C137.693 11.4304 137.576 11.7936 137.342 12.1136C137.111 12.4337 136.788 12.6861 136.373 12.8707C135.957 13.0554 135.474 13.1477 134.923 13.1477C134.2 13.1477 133.601 12.9908 133.127 12.6768C132.653 12.3629 132.353 11.9044 132.227 11.3011L133.261 11.0426C133.36 11.4242 133.546 11.7105 133.82 11.9013C134.097 12.0921 134.458 12.1875 134.905 12.1875C135.413 12.1875 135.816 12.0798 136.114 11.8643C136.416 11.6458 136.567 11.3842 136.567 11.0795C136.567 10.8333 136.48 10.6271 136.308 10.4609C136.136 10.2917 135.871 10.1655 135.514 10.0824L134.332 9.8054C133.683 9.65152 133.206 9.413 132.901 9.08984C132.6 8.76361 132.449 8.35582 132.449 7.86648C132.449 7.46638 132.561 7.11245 132.786 6.80469C133.014 6.49692 133.323 6.25533 133.714 6.0799C134.108 5.90447 134.554 5.81676 135.052 5.81676C135.754 5.81676 136.305 5.97064 136.705 6.27841C137.108 6.58617 137.395 6.99242 137.564 7.49716ZM140.127 13.0739C139.899 13.0739 139.704 12.9923 139.541 12.8292C139.378 12.6661 139.296 12.4706 139.296 12.2429C139.296 12.0152 139.378 11.8197 139.541 11.6566C139.704 11.4935 139.899 11.4119 140.127 11.4119C140.355 11.4119 140.55 11.4935 140.713 11.6566C140.877 11.8197 140.958 12.0152 140.958 12.2429C140.958 12.3937 140.92 12.5322 140.843 12.6584C140.769 12.7846 140.669 12.8861 140.543 12.9631C140.42 13.0369 140.281 13.0739 140.127 13.0739ZM142.913 13V5.90909H144.003V13H142.913ZM143.467 4.72727C143.255 4.72727 143.072 4.65495 142.918 4.5103C142.767 4.36565 142.692 4.19176 142.692 3.98864C142.692 3.78551 142.767 3.61162 142.918 3.46697C143.072 3.32232 143.255 3.25 143.467 3.25C143.68 3.25 143.861 3.32232 144.012 3.46697C144.166 3.61162 144.243 3.78551 144.243 3.98864C144.243 4.19176 144.166 4.36565 144.012 4.5103C143.861 4.65495 143.68 4.72727 143.467 4.72727ZM148.879 13.1477C148.239 13.1477 147.677 12.9954 147.194 12.6907C146.714 12.386 146.338 11.9598 146.067 11.4119C145.8 10.8641 145.666 10.224 145.666 9.49148C145.666 8.75284 145.8 8.10807 146.067 7.55717C146.338 7.00627 146.714 6.57848 147.194 6.27379C147.677 5.96911 148.239 5.81676 148.879 5.81676C149.519 5.81676 150.079 5.96911 150.559 6.27379C151.042 6.57848 151.418 7.00627 151.686 7.55717C151.956 8.10807 152.092 8.75284 152.092 9.49148C152.092 10.224 151.956 10.8641 151.686 11.4119C151.418 11.9598 151.042 12.386 150.559 12.6907C150.079 12.9954 149.519 13.1477 148.879 13.1477ZM148.879 12.169C149.365 12.169 149.765 12.0444 150.079 11.7951C150.393 11.5458 150.625 11.218 150.776 10.8118C150.927 10.4055 151.002 9.96544 151.002 9.49148C151.002 9.01752 150.927 8.57588 150.776 8.16655C150.625 7.75722 150.393 7.42637 150.079 7.17401C149.765 6.92164 149.365 6.79545 148.879 6.79545C148.393 6.79545 147.992 6.92164 147.679 7.17401C147.365 7.42637 147.132 7.75722 146.981 8.16655C146.831 8.57588 146.755 9.01752 146.755 9.49148C146.755 9.96544 146.831 10.4055 146.981 10.8118C147.132 11.218 147.365 11.5458 147.679 11.7951C147.992 12.0444 148.393 12.169 148.879 12.169Z" fill="white" fill-opacity="0.6"/>
<g clip-path="url(#clip0_9805_109819)">
<path fill-rule="evenodd" clip-rule="evenodd" d="M229.17 6.70561C229.363 5.98576 229.714 5.31811 230.198 4.75149C230.682 4.18486 231.287 3.73359 231.968 3.43068C232.648 3.12777 233.388 2.98089 234.133 3.00078C234.878 3.02066 235.609 3.20681 236.273 3.54561C236.332 3.57542 236.396 3.5934 236.461 3.59853C236.527 3.60366 236.592 3.59583 236.655 3.57549C236.717 3.55516 236.775 3.52271 236.825 3.48001C236.875 3.4373 236.916 3.38518 236.946 3.32661C236.976 3.26804 236.994 3.20417 236.999 3.13865C237.004 3.07313 236.996 3.00725 236.976 2.94475C236.956 2.88226 236.923 2.82438 236.88 2.77443C236.838 2.72447 236.786 2.68342 236.727 2.65361C235.464 2.00911 234.013 1.83279 232.633 2.15591C231.252 2.47903 230.03 3.28071 229.185 4.41876C228.339 5.55682 227.923 6.95769 228.012 8.37292C228.1 9.78816 228.687 11.1263 229.669 12.15C230.65 13.1736 231.962 13.8167 233.372 13.9651C234.782 14.1135 236.199 13.7577 237.372 12.9607C238.545 12.1637 239.398 10.9771 239.779 9.61129C240.16 8.24551 240.046 6.78883 239.455 5.49961C239.4 5.37894 239.299 5.28517 239.174 5.23894C239.05 5.19272 238.912 5.19781 238.792 5.25311C238.671 5.30841 238.577 5.40938 238.531 5.53381C238.485 5.65824 238.49 5.79594 238.545 5.91661C238.879 6.64606 239.033 7.44526 238.994 8.2467C238.954 9.04813 238.722 9.82825 238.317 10.5212C237.913 11.2141 237.347 11.7994 236.669 12.2278C235.99 12.6561 235.219 12.9148 234.419 12.9821C233.619 13.0494 232.815 12.9233 232.075 12.6144C231.334 12.3055 230.679 11.8229 230.164 11.2073C229.649 10.5918 229.29 9.86142 229.117 9.07788C228.944 8.29435 228.962 7.48068 229.17 6.70561Z" fill="white" fill-opacity="0.6"/>
<path fill-rule="evenodd" clip-rule="evenodd" d="M234.147 0.146393C234.241 0.0526577 234.368 0 234.5 0C234.633 0 234.76 0.0526577 234.854 0.146393L237.354 2.64639C237.4 2.69284 237.437 2.74801 237.463 2.80876C237.488 2.8695 237.501 2.93463 237.501 3.00039C237.501 3.06616 237.488 3.13128 237.463 3.19203C237.437 3.25277 237.4 3.30795 237.354 3.35439L234.854 5.85439C234.807 5.90082 234.752 5.93763 234.692 5.96273C234.631 5.98782 234.566 6.00072 234.5 6.00067C234.434 6.00063 234.369 5.98764 234.309 5.96245C234.248 5.93727 234.193 5.90038 234.146 5.85389C234.053 5.76001 234 5.63272 234 5.50004C234 5.43434 234.013 5.3693 234.038 5.30862C234.064 5.24794 234.1 5.19282 234.147 5.14639L236.293 3.00039L234.147 0.854393C234.1 0.807948 234.063 0.752772 234.038 0.692027C234.013 0.631282 234 0.566161 234 0.500393C234 0.434626 234.013 0.369505 234.038 0.30876C234.063 0.248014 234.1 0.192839 234.147 0.146393Z" fill="white" fill-opacity="0.6"/>
</g>
<defs>
<clipPath id="clip0_9805_109819">
<rect width="16" height="16" fill="white" transform="translate(226)"/>
</clipPath>
</defs>
</svg>
