<svg width="68" height="69" viewBox="0 0 68 69" fill="none" xmlns="http://www.w3.org/2000/svg">
<path d="M34 0.5625C15.3907 0.5625 0.25 15.7032 0.25 34.3125C0.25 52.9218 15.3907 68.0625 34 68.0625C52.6093 68.0625 67.75 52.9218 67.75 34.3125C67.75 15.7032 52.6093 0.5625 34 0.5625ZM35.5825 61.2931C35.6407 60.3888 35.744 59.4942 35.8894 58.6157C36.2414 56.4809 36.8356 54.4301 37.6528 52.4923C38.1663 51.2715 38.7702 50.0959 39.4484 48.972C41.7286 45.1997 44.8969 42.0217 48.6627 39.7319C46.305 38.7533 44.0701 37.5357 41.9902 36.1114C39.6842 37.8974 37.614 39.9709 35.8345 42.2801C35.1982 43.1036 34.5975 43.9563 34.0388 44.838C32.5305 47.2086 31.3097 49.7794 30.4215 52.4955C29.8402 54.2783 29.3977 56.1224 29.1167 58.0182C29.1071 58.0796 29.1006 58.141 29.0909 58.2023C28.965 59.0711 28.8778 59.9528 28.8196 60.8442C16.8666 58.5124 7.7073 48.284 7.01615 35.8304C7.92045 35.8886 8.81507 35.9919 9.69354 36.1373C11.8639 36.4925 13.947 37.1029 15.9139 37.9394C17.1282 38.4562 18.2974 39.0569 19.4116 39.7351C23.1742 42.0282 26.3425 45.2062 28.6258 48.9752C29.6044 46.6111 30.8188 44.3697 32.2431 42.2801C30.4603 39.9709 28.3901 37.8974 26.0873 36.1114C25.267 35.4752 24.4176 34.8745 23.5391 34.3157C21.1782 32.8107 18.6236 31.5867 15.9171 30.6953C14.1634 30.1172 12.3483 29.6747 10.4848 29.3873C10.3685 29.3679 10.2523 29.355 10.136 29.3356C9.264 29.2096 8.3823 29.1224 7.49091 29.0643C9.83888 17.1436 20.0543 8.01657 32.4853 7.32542C32.4272 8.22973 32.3238 9.12434 32.1785 10.0028C31.8264 12.1376 31.2322 14.1917 30.4151 16.1327C29.9016 17.3535 29.2976 18.5291 28.6194 19.6531C26.3392 23.4253 23.1709 26.6033 19.4051 28.8931C21.7628 29.8717 23.9977 31.0893 26.0776 32.5136C28.3836 30.7276 30.4538 28.6541 32.2334 26.3449C32.8696 25.5214 33.4703 24.6687 34.0291 23.787C35.5373 21.4164 36.7581 18.8456 37.6463 16.1295C38.2276 14.3467 38.6701 12.5026 38.9511 10.6068C38.9608 10.5519 38.9672 10.4937 38.9737 10.4388C39.0996 9.56681 39.1868 8.68511 39.245 7.79372C51.1624 10.1481 60.2895 20.3603 60.9806 32.7913C60.0763 32.73 59.1817 32.6266 58.3032 32.4781C56.1587 32.1196 54.0982 31.5156 52.1507 30.6888C50.9364 30.1721 49.7672 29.5714 48.653 28.8899C44.8904 26.5968 41.7221 23.4188 39.4388 19.6498C38.4602 22.0139 37.2458 24.2553 35.8215 26.3449C37.6043 28.6541 39.6745 30.7276 41.9773 32.5136C42.7976 33.1498 43.647 33.7505 44.5255 34.3093C46.8864 35.8143 49.441 37.0383 52.1475 37.9297C53.9012 38.5078 55.7163 38.9503 57.5798 39.2377C57.6734 39.2539 57.7671 39.2636 57.864 39.2797C58.736 39.4057 59.6177 39.4961 60.5059 39.5542C58.1547 51.4556 47.9748 60.5697 35.5728 61.2899L35.5825 61.2931Z" fill="#DBE2E6"/>
</svg>
